<svg clip-rule="evenodd" fill-rule="evenodd" height="512" image-rendering="optimizeQuality" shape-rendering="geometricPrecision" text-rendering="geometricPrecision" viewBox="0 0 6773 6773" width="512" xmlns="http://www.w3.org/2000/svg"><g id="Layer_x0020_1"><circle cx="3387" cy="3387" fill="#ff700d" r="3387"/><path d="m4395 3852h-544c-78 0-78-119 0-119h544v-342h-745c-78 0-78-118 0-118h745v-372c0-93-75-168-168-168h-2472c-93 0-169 75-169 168v372h746c78 0 78 118 0 118h-746v342h545c78 0 78 119 0 119h-545v705c0 92 76 168 169 168h515v-458c0-142 116-258 259-258h214v-31c-132-82-220-229-220-397l-1-583c0-87 72-159 159-159h619c87 0 159 72 159 159v583c0 167-88 314-220 397v31h214c142 0 258 116 258 258v458h516c93 0 168-76 168-168zm-168 1240h-2472c-295 0-536-240-536-535v-1656c0-295 241-535 536-535h234c24-10 49-19 75-26l2388-640c285-77 579 93 655 378l429 1599c76 285-94 579-379 655l-395 107v118c0 295-240 535-535 535zm535-910v134l365-98c222-59 354-288 294-510l-428-1598c-59-222-289-354-510-295l-2058 551h502l1589-426c153-41 311 50 352 203l428 1599c41 152-50 310-203 351zm-3007-1697c-230 0-417 186-417 416v1656c0 229 187 416 417 416h2472c230 0 417-187 417-416v-1656c0-230-187-416-417-416zm2759 1307v765c0 158-128 287-287 287h-2472c-158 0-287-129-287-287v-1656c0-158 129-287 287-287h2472c158 0 287 129 287 287zm-1129-1426h842c295 0 535 240 535 535v1158l301-80c89-24 143-117 118-207l-428-1598c-24-90-117-143-206-119zm-523 1808c4 168 258 165 258-3v-140c-84 25-174 24-258 0zm-473 551h160v-172c0-78 119-78 119 0v172h646v-172c0-78 118-78 118 0v172h161v-458c0-77-63-140-139-140h-215c0 89-5 154-77 223-154 149-419 41-419-179v-44h-214c-77 0-140 63-140 140zm602-794c188 0 349-153 349-350v-150c-97 0-142-59-142-153h-415c0 94-43 153-142 153v150c0 192 160 350 350 350zm268-772c99 2 34 153 70 153h11v-314c0-22-18-40-40-40h-618c-23 0-41 18-41 40v314c31 0 24 3 24-93 0-33 27-60 59-60z" fill="#fff"/></g></svg>